PathFileType	4	(X/Y/Z)	/Users/niels/Desktop/University/Third Semester/Perception and Action/Exam/Gymnastics Motion Tracking/Code for Gym Tracking/Analyzed Data/Webcam_Backflip/id17_1_trajectory_Sports2D/id17_1_trajectory_Sports2D_px_person00.trc
DataRate	CameraRate	NumFrames	NumMarkers	Units	OrigDataRate	OrigDataStartFrame	OrigNumFrames
29.702970297029704	29.702970297029704	11	22	m	29.702970297029704	63	101
Frame#	Time	Hip			RHip			RKnee			RAnkle			RBigToe			RSmallToe			RHeel			LHip			LKnee			LAnkle			LBigToe			LSmallToe			LHeel			Neck			Head			Nose			RShoulder			RElbow			RWrist			LShoulder			LElbow			LWrist		
		X1	Y1	Z1	X2	Y2	Z2	X3	Y3	Z3	X4	Y4	Z4	X5	Y5	Z5	X6	Y6	Z6	X7	Y7	Z7	X8	Y8	Z8	X9	Y9	Z9	X10	Y10	Z10	X11	Y11	Z11	X12	Y12	Z12	X13	Y13	Z13	X14	Y14	Z14	X15	Y15	Z15	X16	Y16	Z16	X17	Y17	Z17	X18	Y18	Z18	X19	Y19	Z19	X20	Y20	Z20	X21	Y21	Z21	X22	Y22	Z22
63	2.121	1.009597297331461	-0.6427000836147048	0.0	0.9597854711315448	-0.6393819828969677	0.0	0.9676176152101343	-0.8588012700931481	0.0	0.9838109246514171	-1.0480024949522393	0.0	1.004196615150285	-1.0981736088291545	0.0	0.9726139935869049	-1.0917785989173985	0.0	0.9882028007820516	-1.0683521771697517	0.0	1.060494732908126	-0.633958987961041	0.0	1.0715949907692317	-0.8515336921042688	0.0	1.0527198596746348	-1.0422611769374492	0.0	1.0428317236029485	-1.0906563767398585	0.0	1.0742810090685029	-1.083676461445844	0.0	1.0463729055750504	-1.059503853940198	0.0	1.006564529468259	-0.32026216754807796	0.0	1.0107629167182806	-0.191101043653909	0.0	1.0183657462356208	-0.26255569750759766	0.0	0.9081000876436441	-0.38535112403444205	0.0	0.8644161599108405	-0.5249745032892099	0.0	0.9189195113252033	-0.6186521489404143	0.0	1.101230365117912	-0.37476556997942195	0.0	1.1316357810099615	-0.505087126731727	0.0	1.1278703864885447	-0.5924020234445905	0.0
64	2.1546666666666665	1.0093586987819618	-0.6447673859806207	0.0	0.959934746640627	-0.6415245465168141	0.0	0.9684897835783741	-0.8607356635128435	0.0	0.9857210224527739	-1.0489330546148792	0.0	1.0056235634782096	-1.0992045453401769	0.0	0.9740607031999927	-1.0917805445335012	0.0	0.991095665474962	-1.0697647097812208	0.0	1.0594470665418014	-0.6362712138572745	0.0	1.073567068262507	-0.8514869469076486	0.0	1.0495963316881936	-1.0324952376587284	0.0	1.0509804186751017	-1.0872377029644644	0.0	1.0779129930339924	-1.0786075249937213	0.0	1.0413142774745827	-1.0500122823537916	0.0	1.005745611922552	-0.32536571503428036	0.0	1.0097475351314937	-0.19770956398238904	0.0	1.0180107188633314	-0.26829180158554505	0.0	0.9087484174130814	-0.39091716249656594	0.0	0.8649064088290129	-0.5318048810330082	0.0	0.9273967693219921	-0.6255517745721345	0.0	1.099044793655366	-0.38014879695627307	0.0	1.1254634989322108	-0.5107417332335646	0.0	1.1270245578352156	-0.6033675782781502	0.0
65	2.188333333333333	1.0087025203734183	-0.6460391788861971	0.0	0.9599607200515939	-0.642660402893691	0.0	0.9688859834870748	-0.8616205687331634	0.0	0.9867223555476441	-1.0495321734427077	0.0	1.007654434747695	-1.099419232655776	0.0	0.976267542245814	-1.0916814323904942	0.0	0.9927139363565225	-1.070852160744753	0.0	1.0576899667435153	-0.63787602165861	0.0	1.0733665597303723	-0.8512057374177395	0.0	1.0428407642517632	-1.022793210065362	0.0	1.0569012923957137	-1.0832082693503613	0.0	1.07867195164727	-1.073228554691516	0.0	1.0324885467147669	-1.0408590839820793	0.0	1.0055838291214552	-0.3286206585816263	0.0	1.0093955098313778	-0.20269193166444202	0.0	1.0183372496812946	-0.2720581526696787	0.0	0.9100387351247367	-0.39454742758670935	0.0	0.8675472318855997	-0.5365220832866854	0.0	0.9346112898046182	-0.6318292689249261	0.0	1.0973546331124742	-0.38411771101569353	0.0	1.120313281883651	-0.515166165394449	0.0	1.1254887910722897	-0.6131372900163529	0.0
66	2.222	1.0078311500947794	-0.6461657282374899	0.0	0.9601108501450899	-0.6425693646127295	0.0	0.9690638822942313	-0.8607492779323861	0.0	0.9871203978576056	-1.049688962344551	0.0	1.010979250638243	-1.09823049687643	0.0	0.9798270090433526	-1.0911743756284007	0.0	0.993178329329574	-1.0715105160971257	0.0	1.0554735511512563	-0.6384633472671869	0.0	1.0707810273477876	-0.8501426154604801	0.0	1.032958075207321	-1.0147973690274896	0.0	1.0592845791100318	-1.0787982248953036	0.0	1.0760827418275947	-1.0683399839023615	0.0	1.0205138939507419	-1.0337200393189478	0.0	1.0060978136447574	-0.32966685578814203	0.0	1.0099325801499413	-0.20550945303001697	0.0	1.0194757618278485	-0.2735052981244404	0.0	0.9119600706978157	-0.39573226729275757	0.0	0.8721689182364661	-0.5385575293183316	0.0	0.9404263064131433	-0.6371177389718209	0.0	1.0960823590600208	-0.3862832576641967	0.0	1.1161638261469418	-0.5181215687415195	0.0	1.1237107021614552	-0.6213770045145797	0.0
67	2.2556666666666665	1.0069064008986681	-0.6450722479320173	0.0	0.9605652518558045	-0.6413638141903858	0.0	0.9692015336706367	-0.8579104804091268	0.0	0.987299053755894	-1.049217892433326	0.0	1.016168274624194	-1.0952448268185593	0.0	0.98526485430851	-1.0900728770954213	0.0	0.992796078673967	-1.0716671708235563	0.0	1.0530596523159703	-0.6380497348622775	0.0	1.065972631224689	-0.8479726616084028	0.0	1.0208772242349882	-1.009672160637592	0.0	1.0578338983488589	-1.0744479280490724	0.0	1.0702571025640641	-1.0647932815102672	0.0	1.006236325964622	-1.0296689821045657	0.0	1.0072178467852497	-0.32888415254458314	0.0	1.011454394707431	-0.2063199722186621	0.0	1.0214141104744119	-0.2730397047211753	0.0	0.9145482557473245	-0.39470014425544675	0.0	0.8781581021029818	-0.5380627510503144	0.0	0.9446976871126832	-0.6414537780239076	0.0	1.0950472040964263	-0.38685587949735745	0.0	1.11291828955103	-0.5196481235245013	0.0	1.1221929710926284	-0.627994881401207	0.0
68	2.289333333333333	1.0060373478142692	-0.6431531425508968	0.0	0.9614123836752765	-0.6395476694879598	0.0	0.9694749574522448	-0.8535688562372533	0.0	0.9875388420151833	-1.04811402362855	0.0	1.0233288557574787	-1.0906562226537617	0.0	0.9928071270292737	-1.0885385683689703	0.0	0.9919276859203554	-1.0714181836309804	0.0	1.0506126376782534	-0.637055993847833	0.0	1.059421483784037	-0.8448140742333823	0.0	1.0077485276590024	-1.0078683037061207	0.0	1.053312931268319	-1.0707534438023985	0.0	1.0620012896390447	-1.0632466102760894	0.0	0.9905862946960944	-1.0289083782168602	0.0	1.008810271042107	-0.3272213220042192	0.0	1.0139070206752319	-0.2058457815171334	0.0	1.024066423770963	-0.2715908591099238	0.0	0.9178364293931224	-0.3922795931096697	0.0	0.8847078563173959	-0.5358491449183829	0.0	0.9472654477698036	-0.6452536648987276	0.0	1.0939740038797714	-0.3864645272078534	0.0	1.1103969005028134	-0.5200287297720683	0.0	1.1213303646270452	-0.6330998070890734	0.0
69	2.323	1.0053070874599428	-0.6412401177103257	0.0	0.9626609294730547	-0.6379139497179029	0.0	0.9701246020040344	-0.8487177135509741	0.0	0.987923368011984	-1.0466643165655656	0.0	1.0318676171693362	-1.0852176725605733	0.0	1.0020907978847249	-1.0869277575202085	0.0	0.9907798575925076	-1.0709842500112918	0.0	1.0482056994369824	-0.6362262004397116	0.0	1.0517096192910087	-0.8412211685222865	0.0	0.9948532591039991	-1.0091289806547725	0.0	1.047306520599735	-1.0681342749348763	0.0	1.0527817323097932	-1.0637565433125344	0.0	0.9747553390200637	-1.0309361261818477	0.0	1.0107828218123245	-0.325776521021932	0.0	1.0171696875098917	-0.2050454216759691	0.0	1.0273701729414297	-0.2702008938450286	0.0	0.9218530624564294	-0.3895565306898966	0.0	0.8911219761002702	-0.5330563725416032	0.0	0.9480560589284611	-0.6490738199162472	0.0	1.0926127292476016	-0.3858812108132848	0.0	1.1083309668948167	-0.5197329573454108	0.0	1.1213143334430704	-0.6368700536365997	0.0
70	2.3566666666666665	1.004726091394126	-0.6402152064482858	0.0	0.9642543043984388	-0.6372188832876254	0.0	0.9714790848365809	-0.8444447908985507	0.0	0.9883175140921561	-1.0453115044924082	0.0	1.0406172553209911	-1.079902949144315	0.0	1.0120212191553972	-1.08549664544381	0.0	0.9892054488713922	-1.0705525833903218	0.0	1.0458273244731258	-0.6362895454204122	0.0	1.0432721714049442	-0.8379657858450312	0.0	0.9835525117476069	-1.0127315887282125	0.0	1.0418609749056145	-1.0665609575631108	0.0	1.044519274183343	-1.0655708473394312	0.0	0.9604280743470945	-1.0350334955187974	0.0	1.0131710581481788	-0.32538027358688315	0.0	1.0211793436681327	-0.20474275383736293	0.0	1.0313521499186675	-0.2696876771510456	0.0	0.9266667665504422	-0.3875125727579887	0.0	0.8970271485247121	-0.5307054206946508	0.0	0.9471795035772044	-0.6533123233256792	0.0	1.0908532515951428	-0.38574221052447416	0.0	1.106435236546441	-0.5192381621213501	0.0	1.1220624535967558	-0.6394658245142456	0.0
71	2.390333333333333	1.0041791111975518	-0.6405038944807526	0.0	0.9660898746788273	-0.637791935504403	0.0	0.97394737294657	-0.8415499925491398	0.0	0.9884858407238329	-1.0444721248966167	0.0	1.0483965088104996	-1.0756491333085874	0.0	1.0212001845640606	-1.08442538273805	0.0	0.9868866018928714	-1.070217831032978	0.0	1.043341421246103	-0.6375610434945318	0.0	1.034286267693752	-0.8357699432451586	0.0	0.9750250754102411	-1.0178757824687323	0.0	1.0387407457664153	-1.0657432939803042	0.0	1.038930379370361	-1.0675600717605336	0.0	0.9494438159716255	-1.0405572040305018	0.0	1.0161085768462923	-0.3263901472933621	0.0	1.0259749762373351	-0.20540615336691606	0.0	1.0361390906833499	-0.27046982753044274	0.0	0.9324020644085971	-0.38676225853975	0.0	0.9024018468042209	-0.5293627042459361	0.0	0.9449507120210365	-0.6579970420596457	0.0	1.0887516247052418	-0.3863550023854385	0.0	1.1044804700076294	-0.5188421790750662	0.0	1.1232087223666383	-0.6410482257447214	0.0
72	2.424	1.0034780697522911	-0.641830608548998	0.0	0.9680398975970289	-0.6393455352809486	0.0	0.9779082540102562	-0.8403112045639454	0.0	0.9882674493978962	-1.0443667331485358	0.0	1.0544945511619292	-1.073090178656895	0.0	1.0286058981842394	-1.0839080418902252	0.0	0.983734179649601	-1.0699763024378648	0.0	1.0405060569540412	-0.6397762677982725	0.0	1.0247581984484795	-0.8350543704932895	0.0	0.9698296092367186	-1.0237856272141617	0.0	1.0385552202869208	-1.0654380134738197	0.0	1.0366838611744502	-1.068868936091223	0.0	0.9429318396778998	-1.046736934753564	0.0	1.0197047376742905	-0.3287529950726401	0.0	1.031642105957959	-0.20714045649711732	0.0	1.0418766481968196	-0.27254489934569276	0.0	0.9391576953034678	-0.38743261737190965	0.0	0.9074353716303097	-0.5290510745676541	0.0	0.9418565764671814	-0.6627819410294407	0.0	1.0864919958214931	-0.3876885666599399	0.0	1.102283447957514	-0.5186608786050665	0.0	1.1241966458995944	-0.6418121954307282	0.0
73	2.4576666666666664	1.0024795704701923	-0.6433947712116326	0.0	0.9699665067416721	-0.6411287387399878	0.0	0.9834881108063505	-0.8403444131794882	0.0	0.987541406967513	-1.044825282988762	0.0	1.058644940144284	-1.072316529108878	0.0	1.0337473376042674	-1.0839928932644949	0.0	0.979838693161109	-1.0696934265170368	0.0	1.0371143766844733	-0.6422250475630407	0.0	1.0147647348939384	-0.8356907354679093	0.0	0.9676861144203917	-1.0295770122890004	0.0	1.0406483452996305	-1.06552252444303	0.0	1.0372207103461513	-1.069153525273552	0.0	0.9407969469059706	-1.0526025361698437	0.0	1.0239132615296354	-0.332200232311088	0.0	1.0382222506235863	-0.2098211486682401	0.0	1.0486062240470155	-0.2755995139180988	0.0	0.9468459885073451	-0.38922020152832787	0.0	0.9123235338509443	-0.5294193872753994	0.0	0.9384747337705378	-0.66713986481167	0.0	1.0842555262262221	-0.38954612180553255	0.0	1.099684210681558	-0.5187825142820754	0.0	1.124422942342499	-0.6419714565033162	0.0
